<svg width="300" height="64" viewBox="0 0 300 64" fill="none" xmlns="http://www.w3.org/2000/svg">
<path d="M49.2073 58.0674C49.2073 61.301 46.069 64.3785 42.7907 64.3785H6.41666C3.14413 64.3785 0 61.301 0 58.0674V7.17632C0 3.94229 3.13173 0.864502 6.41666 0.864502H42.791C46.0752 0.864502 49.2077 3.94229 49.2077 7.17632V58.0674H49.2073Z" fill="#FDFEFF"/>
<path d="M1.94141 37.5685C1.94141 37.5685 9.85298 34.6075 16.8252 34.8454C24.542 35.1142 25.2687 35.7858 33.0529 37.2877C37.6504 38.1726 42.8519 37.9713 47.2593 36.5544L47.2655 56.7363C47.2655 60.0391 44.9517 62.3592 41.6427 62.3592H7.55188C4.27971 62.3592 1.94177 60.0267 1.94177 56.7363L1.94141 37.5685Z" fill="#1C4FB9"/>
<path d="M1.74805 49.2202C1.74805 49.2202 10.031 45.6573 16.8066 45.1134C24.0192 44.5359 26.1405 45.2112 33.9682 46.8027C38.5572 47.7355 44.0802 46.7954 47.314 45.2101L47.3071 46.7115C44.0699 48.2929 38.5645 49.0294 33.9715 48.1444C26.1876 46.6448 23.6435 45.9254 16.8726 46.4857C10.3666 47.0238 1.75425 50.8815 1.75425 50.8815L1.74805 49.2202Z" fill="#F7FDFF"/>
<path d="M28.2822 35.0418C19.6308 30.7081 11.1195 28.62 1.94141 32.2329V36.099C13.2561 32.1355 20.0587 33.6042 28.2822 35.0418Z" fill="#59CD8B"/>
<path d="M11.7006 25.99C8.69733 25.99 5.46638 26.4927 1.94141 27.7271V30.7855C2.67901 30.5802 6.03034 29.1192 11.2523 29.1199C14.7164 29.1199 19.0045 29.7627 23.8956 31.842C24.8357 32.2385 23.6329 31.6282 28.334 33.8377C32.6597 35.8725 36.5148 36.489 39.5991 36.489C44.3458 36.489 47.2659 35.0291 47.2659 35.0291V31.7077C47.2659 31.7077 43.2656 33.2956 39.583 33.2956C39.2186 33.2956 38.8586 33.2803 38.5047 33.2464C37.8645 33.1851 34.7441 33.5758 29.1457 30.9325C23.9397 28.4768 18.3803 25.9893 11.7006 25.99Z" fill="#59CD8B"/>
<path d="M27.256 28.6155C28.3409 29.1339 30.6012 30.2844 32.2577 31.0067C26.2189 25.3871 19.4335 21.2891 10.3243 21.3923C7.38445 21.4255 4.62772 21.7892 1.94141 22.576V26.2601C12.4729 22.5866 20.8354 25.5473 27.256 28.6155Z" fill="#59CD8B"/>
<path d="M47.2659 8.42343C47.2659 5.13412 44.952 2.80493 41.6459 2.80493C40.0821 2.80493 7.54933 2.80493 7.54933 2.80493C4.27643 2.80493 1.94141 5.13266 1.94141 8.42198C1.94141 10.4429 1.94141 20.9062 1.94141 20.9062C1.94141 20.9062 9.94929 18.5245 18.6838 20.9182C23.8292 22.3278 26.4984 24.1733 32.6064 28.8637C36.7275 32.0272 41.0736 31.72 43.0128 31.2217C45.9326 30.5509 47.2663 29.8848 47.2663 29.8848V8.42343H47.2659Z" fill="#B1E6FB"/>
<path d="M40.0012 32.5021C40.0012 36.811 36.5065 40.3071 32.1976 40.3071C27.8865 40.3071 24.3926 36.8114 24.3926 32.5021C24.3926 28.1914 27.8865 24.6985 32.1976 24.6985C36.5065 24.6985 40.0012 28.191 40.0012 32.5021Z" fill="#F7FDFF"/>
<g clip-path="url(#clip0_221_6563)">
<path d="M69.5868 45.0047L61.5957 24.7859H64.385L70.9387 41.9001H70.22L76.6883 24.7859H79.4776L71.5409 45.0047H69.5868Z" fill="#F7FDFF"/>
<path d="M85.4829 45.2359C84.3719 45.2359 83.3968 45.0478 82.5654 44.6714C81.7302 44.2951 81.0426 43.766 80.4948 43.0917C79.947 42.4136 79.5353 41.6375 79.2594 40.7555C78.9797 39.8774 78.8438 38.9445 78.8438 37.9567C78.8438 36.9689 78.9758 36.0281 79.2478 35.1304C79.5158 34.2328 79.9121 33.4331 80.4404 32.7393C80.9688 32.0416 81.6331 31.4928 82.4372 31.0851C83.2414 30.6775 84.1815 30.4775 85.2537 30.4775C86.3259 30.4775 87.2894 30.6657 88.0858 31.042C88.8822 31.4183 89.5309 31.9357 90.0398 32.5943C90.5488 33.2528 90.9256 33.9858 91.1742 34.7973C91.4228 35.6087 91.5472 36.4514 91.5472 37.3217C91.5472 37.4001 91.5433 37.5804 91.5316 37.8587C91.52 38.1409 91.4967 38.3839 91.4578 38.5995H81.2523C81.3106 39.9911 81.7108 41.0769 82.4605 41.8491C83.2064 42.6213 84.2242 43.0094 85.5062 43.0094C86.3298 43.0094 87.0485 42.8761 87.6623 42.6017C88.2761 42.3313 88.8511 41.8962 89.3872 41.2964L91.0849 42.8056C90.5682 43.3661 90.0204 43.8247 89.4455 44.1815C88.8705 44.5382 88.2606 44.8047 87.6196 44.9811C86.9786 45.1536 86.2638 45.2437 85.479 45.2437L85.4829 45.2359ZM89.1347 37.3452C89.1735 37.1923 89.1968 37.0355 89.2085 36.8826C89.2163 36.7298 89.224 36.573 89.224 36.4201C89.224 35.9575 89.1424 35.4911 88.9793 35.0285C88.8161 34.566 88.5753 34.1426 88.2606 33.7663C87.9459 33.39 87.5419 33.0882 87.0524 32.8687C86.5629 32.6452 85.9841 32.5355 85.312 32.5355C84.4884 32.5355 83.7775 32.7276 83.1831 33.1156C82.5887 33.5037 82.1303 34.0133 81.804 34.6522C81.4777 35.2912 81.2873 35.9967 81.229 36.769H89.9388L89.1347 37.3491V37.3452Z" fill="#F7FDFF"/>
<path d="M92.5254 32.6178V30.7049H101.208V32.6178H92.5254ZM99.0208 45.2359C98.3488 45.2359 97.7427 45.1066 97.195 44.844C96.6472 44.5813 96.2237 44.1619 95.9168 43.5818C95.6099 43.0016 95.4584 42.2568 95.4584 41.3474V26.8752L97.9292 25.4836V40.7124C97.9292 41.5042 98.0535 42.1196 98.3021 42.5547C98.5508 42.9899 99.0014 43.2094 99.6541 43.2094C99.8444 43.2094 100.074 43.1858 100.346 43.1349C100.614 43.0878 100.901 43.0251 101.208 42.9467V44.8596C100.843 44.9968 100.474 45.0909 100.101 45.1497C99.7279 45.2085 99.3666 45.2359 99.0247 45.2359H99.0208Z" fill="#F7FDFF"/>
<path d="M109.376 45.2357C108.264 45.2357 107.289 45.0475 106.458 44.6712C105.623 44.2949 104.935 43.7657 104.387 43.0915C103.84 42.4133 103.428 41.6372 103.152 40.7552C102.872 39.8772 102.736 38.9442 102.736 37.9564C102.736 36.9686 102.868 36.0279 103.14 35.1302C103.408 34.2325 103.805 33.4329 104.333 32.7391C104.861 32.0413 105.526 31.4925 106.33 31.0849C107.134 30.6772 108.074 30.4773 109.146 30.4773C110.219 30.4773 111.182 30.6654 111.978 31.0418C112.775 31.4181 113.424 31.9355 113.932 32.594C114.441 33.2526 114.818 33.9856 115.067 34.797C115.315 35.6084 115.44 36.4512 115.44 37.3214C115.44 37.3998 115.436 37.5801 115.424 37.8584C115.413 38.1407 115.389 38.3837 115.35 38.5993H105.145C105.203 39.9909 105.603 41.0767 106.353 41.8489C107.099 42.6211 108.117 43.0092 109.399 43.0092C110.222 43.0092 110.941 42.8759 111.555 42.6015C112.169 42.331 112.744 41.8959 113.28 41.2962L114.977 42.8053C114.461 43.3659 113.913 43.8245 113.338 44.1812C112.763 44.5379 112.153 44.8045 111.512 44.9809C110.871 45.1533 110.156 45.2435 109.372 45.2435L109.376 45.2357ZM113.027 37.3449C113.066 37.1921 113.089 37.0353 113.101 36.8824C113.109 36.7295 113.117 36.5727 113.117 36.4198C113.117 35.9573 113.035 35.4908 112.872 35.0283C112.709 34.5657 112.468 34.1424 112.153 33.7661C111.838 33.3898 111.434 33.0879 110.945 32.8684C110.455 32.645 109.877 32.5352 109.205 32.5352C108.381 32.5352 107.67 32.7273 107.076 33.1154C106.481 33.5034 106.023 34.013 105.697 34.652C105.37 35.2909 105.18 35.9965 105.122 36.7687H113.831L113.027 37.3489V37.3449Z" fill="#F7FDFF"/>
<path d="M118.346 45.0049V30.7052H120.789V34.5349L120.156 34.6799C120.288 33.8293 120.611 33.0884 121.119 32.4613C121.628 31.8341 122.223 31.3441 122.903 30.9952C123.582 30.6464 124.251 30.4739 124.899 30.4739C125.338 30.4739 125.762 30.5209 126.166 30.6189C126.57 30.7169 126.982 30.8815 127.401 31.1128L126.193 33.3158C125.964 33.1982 125.692 33.1041 125.373 33.0257C125.055 32.9473 124.756 32.9081 124.468 32.9081C124.01 32.9081 123.551 32.9944 123.105 33.1708C122.654 33.3432 122.246 33.6176 121.881 33.9822C121.516 34.3506 121.24 34.8446 121.046 35.46C120.968 35.7304 120.906 36.0832 120.859 36.5183C120.813 36.9534 120.785 37.5493 120.785 38.3019V45.001H118.342L118.346 45.0049Z" fill="#F7FDFF"/>
<path d="M129.211 26.4518C129.211 25.6522 129.856 25.0015 130.648 25.0015C131.441 25.0015 132.086 25.6522 132.086 26.4518C132.086 27.2515 131.441 27.9022 130.648 27.9022C129.856 27.9022 129.211 27.2515 129.211 26.4518ZM129.44 45.0007V30.7049H131.857V45.0046H129.44V45.0007Z" fill="#F7FDFF"/>
<path d="M135.393 45.0046V30.7049H137.836V33.7506L137.261 33.9545C137.529 33.2215 137.894 32.5982 138.353 32.0847C138.811 31.5712 139.367 31.1753 140.019 30.897C140.672 30.6187 141.391 30.4775 142.175 30.4775C143.729 30.4775 144.945 30.9362 145.827 31.8573C146.709 32.7746 147.148 34.1348 147.148 35.934V45.0125H144.704V36.8238C144.704 35.3735 144.44 34.3073 143.912 33.6174C143.384 32.9314 142.583 32.5864 141.511 32.5864C140.726 32.5864 140.058 32.7707 139.514 33.1391C138.967 33.5076 138.551 34.0799 138.263 34.8639C137.976 35.6479 137.832 36.6474 137.832 37.8665V45.0007H135.389L135.393 45.0046Z" fill="#F7FDFF"/>
<path d="M154.968 45.2359C153.34 45.2359 152.082 44.8204 151.204 43.9894C150.322 43.1584 149.883 42.0961 149.883 40.7986C149.883 39.9676 150.05 39.2973 150.384 38.7838C150.718 38.2703 151.157 37.8705 151.693 37.5804C152.229 37.2903 152.796 37.0826 153.391 36.9571C153.985 36.8317 154.541 36.7533 155.057 36.7258C155.574 36.6984 155.986 36.6827 156.293 36.6827H159.715V36.0438C159.715 34.9423 159.408 34.0917 158.795 33.4919C158.181 32.8922 157.311 32.5943 156.18 32.5943C155.415 32.5943 154.684 32.7511 153.997 33.0568C153.305 33.3665 152.676 33.9075 152.101 34.6797L150.318 33.1705C151.219 32.167 152.163 31.4654 153.15 31.0695C154.137 30.6735 155.232 30.4736 156.44 30.4736C157.649 30.4736 158.748 30.7206 159.575 31.2145C160.399 31.7084 160.966 32.4297 161.273 33.3743C161.751 32.5237 162.38 31.8417 163.157 31.3282C163.934 30.8147 164.847 30.5599 165.904 30.5599C167.034 30.5599 167.99 30.7402 168.763 31.0969C169.54 31.4536 170.162 31.9436 170.632 32.5629C171.102 33.1823 171.448 33.8839 171.665 34.6679C171.883 35.4519 171.995 36.2672 171.995 37.1178C171.995 37.3687 171.991 37.6313 171.98 37.9018C171.968 38.1723 171.945 38.4036 171.906 38.5996H161.988C162.046 39.9519 162.404 41.022 163.064 41.806C163.724 42.59 164.688 42.982 165.954 42.982C166.797 42.982 167.524 42.8526 168.138 42.59C168.751 42.3274 169.326 41.9001 169.863 41.3004L171.587 42.8095C171.012 43.4485 170.437 43.9463 169.863 44.303C169.288 44.6597 168.678 44.9067 168.037 45.0438C167.396 45.1771 166.681 45.2477 165.896 45.2477C164.575 45.2477 163.456 44.9145 162.547 44.2481C161.638 43.5817 160.982 42.6566 160.578 41.4768H160.29C159.735 42.7742 159.02 43.7268 158.15 44.3343C157.276 44.9419 156.219 45.2477 154.972 45.2477L154.968 45.2359ZM155.256 43.1192C156.04 43.1192 156.755 42.9585 157.396 42.641C158.037 42.3234 158.565 41.8335 158.977 41.1749C159.389 40.5164 159.634 39.6854 159.711 38.6819V38.4506H156.464C154.987 38.4506 153.935 38.6662 153.301 39.1052C152.668 39.5403 152.354 40.1244 152.354 40.8613C152.354 41.5395 152.606 42.0843 153.115 42.4998C153.624 42.9153 154.335 43.1231 155.256 43.1231V43.1192ZM161.953 36.7964H169.742C169.762 36.5455 169.715 36.1888 169.598 35.7224C169.482 35.2598 169.284 34.7894 168.996 34.3151C168.709 33.8408 168.316 33.4331 167.819 33.096C167.322 32.7589 166.677 32.5904 165.892 32.5904C165.03 32.5904 164.311 32.7903 163.736 33.1862C163.161 33.5821 162.726 34.0995 162.427 34.7385C162.128 35.3774 161.972 36.0634 161.953 36.7964Z" fill="#F7FDFF"/>
<path d="M174.889 45.0049V30.7052H177.332V34.5349L176.699 34.6799C176.831 33.8293 177.154 33.0884 177.662 32.4613C178.171 31.8341 178.766 31.3441 179.446 30.9952C180.125 30.6464 180.794 30.4739 181.442 30.4739C181.881 30.4739 182.305 30.5209 182.709 30.6189C183.113 30.7169 183.525 30.8815 183.944 31.1128L182.736 33.3158C182.507 33.1982 182.235 33.1041 181.916 33.0257C181.602 32.9473 181.299 32.9081 181.011 32.9081C180.553 32.9081 180.094 32.9944 179.648 33.1708C179.197 33.3432 178.789 33.6176 178.424 33.9822C178.059 34.3467 177.783 34.8446 177.589 35.46C177.511 35.7304 177.449 36.0832 177.402 36.5183C177.356 36.9534 177.332 37.5493 177.332 38.3019V45.001H174.889V45.0049Z" fill="#F7FDFF"/>
<path d="M185.756 26.4518C185.756 25.6522 186.401 25.0015 187.193 25.0015C187.986 25.0015 188.631 25.6522 188.631 26.4518C188.631 27.2515 187.986 27.9022 187.193 27.9022C186.401 27.9022 185.756 27.2515 185.756 26.4518ZM185.985 45.0007V30.7049H188.401V45.0046H185.985V45.0007Z" fill="#F7FDFF"/>
<path d="M191.936 45.0046V30.7049H194.379V33.7506L193.804 33.9545C194.072 33.2215 194.437 32.5982 194.896 32.0847C195.354 31.5712 195.91 31.1753 196.562 30.897C197.215 30.6187 197.934 30.4775 198.718 30.4775C200.272 30.4775 201.488 30.9362 202.37 31.8573C203.252 32.7746 203.691 34.1348 203.691 35.934V45.0125H201.247V36.8238C201.247 35.3735 200.983 34.3073 200.455 33.6174C199.927 32.9314 199.126 32.5864 198.054 32.5864C197.269 32.5864 196.601 32.7707 196.057 33.1391C195.51 33.5076 195.094 34.0799 194.806 34.8639C194.519 35.6479 194.375 36.6474 194.375 37.8665V45.0007H191.932L191.936 45.0046Z" fill="#F7FDFF"/>
<path d="M211.77 45.2357C210.811 45.2357 209.948 45.0907 209.183 44.8006C208.418 44.5105 207.761 44.1225 207.213 43.6403C206.666 43.1582 206.231 42.6447 205.904 42.1037L207.602 40.6534C207.967 41.3903 208.507 41.994 209.226 42.4644C209.945 42.9387 210.803 43.1739 211.798 43.1739C212.699 43.1739 213.418 42.9818 213.954 42.5937C214.49 42.2056 214.758 41.6843 214.758 41.0258C214.758 40.4848 214.595 40.0575 214.268 39.7479C213.942 39.4382 213.511 39.1873 212.975 38.9953C212.439 38.8032 211.852 38.6268 211.223 38.4739C210.687 38.3406 210.143 38.176 209.599 37.98C209.051 37.7879 208.558 37.5449 208.119 37.2548C207.676 36.9648 207.322 36.5884 207.054 36.122C206.786 35.6594 206.65 35.0871 206.65 34.409C206.65 33.2291 207.105 32.2766 208.018 31.5514C208.927 30.8262 210.119 30.4617 211.596 30.4617C212.668 30.4617 213.651 30.689 214.54 31.1437C215.43 31.5984 216.125 32.2805 216.626 33.1899L215.073 34.3502C214.688 33.6721 214.187 33.186 213.561 32.8842C212.94 32.5862 212.252 32.4334 211.506 32.4334C210.76 32.4334 210.135 32.5902 209.638 32.8959C209.14 33.2056 208.892 33.6329 208.892 34.1738C208.892 34.5815 209.008 34.9107 209.237 35.1616C209.467 35.4125 209.809 35.6242 210.259 35.8006C210.71 35.973 211.261 36.1377 211.91 36.2945C212.505 36.4317 213.107 36.5963 213.721 36.7884C214.334 36.9804 214.898 37.2352 215.418 37.541C215.939 37.8467 216.354 38.2622 216.669 38.7718C216.984 39.2853 217.143 39.9478 217.143 40.7592C217.143 41.649 216.922 42.433 216.483 43.1072C216.04 43.7854 215.418 44.3067 214.614 44.6752C213.81 45.0436 212.862 45.2279 211.767 45.2279L211.77 45.2357Z" fill="#F7FDFF"/>
<path d="M218.24 32.6178V30.7049H226.923V32.6178H218.24ZM224.736 45.2359C224.064 45.2359 223.458 45.1066 222.91 44.844C222.362 44.5813 221.939 44.1619 221.632 43.5818C221.325 43.0016 221.173 42.2568 221.173 41.3474V26.8752L223.644 25.4836V40.7124C223.644 41.5042 223.768 42.1196 224.017 42.5547C224.266 42.9899 224.716 43.2094 225.369 43.2094C225.559 43.2094 225.788 43.1858 226.06 43.1349C226.328 43.0878 226.616 43.0251 226.923 42.9467V44.8596C226.558 44.9968 226.189 45.0909 225.816 45.1497C225.443 45.2085 225.081 45.2359 224.736 45.2359Z" fill="#F7FDFF"/>
<path d="M229.137 26.4518C229.137 25.6522 229.782 25.0015 230.574 25.0015C231.367 25.0015 232.012 25.6522 232.012 26.4518C232.012 27.2515 231.367 27.9022 230.574 27.9022C229.782 27.9022 229.137 27.2515 229.137 26.4518ZM229.366 45.0007V30.7049H231.782V45.0046H229.366V45.0007Z" fill="#F7FDFF"/>
<path d="M233.535 32.6178V30.7049H242.218V32.6178H233.535ZM240.031 45.2359C239.359 45.2359 238.752 45.1066 238.205 44.844C237.657 44.5813 237.234 44.1619 236.927 43.5818C236.62 43.0016 236.468 42.2568 236.468 41.3474V26.8752L238.939 25.4836V40.7124C238.939 41.5042 239.063 42.1196 239.312 42.5547C239.561 42.9899 240.011 43.2094 240.664 43.2094C240.854 43.2094 241.083 43.1858 241.355 43.1349C241.623 43.0878 241.911 43.0251 242.218 42.9467V44.8596C241.853 44.9968 241.484 45.0909 241.111 45.1497C240.738 45.2085 240.376 45.2359 240.031 45.2359Z" fill="#F7FDFF"/>
<path d="M249.459 45.2356C248.441 45.2356 247.563 45.0279 246.813 44.6123C246.064 44.1968 245.497 43.5814 245.104 42.77C244.712 41.9586 244.514 40.9512 244.514 39.7517V30.7046H246.93V38.8854C246.93 39.834 247.05 40.6219 247.291 41.2491C247.532 41.8763 247.89 42.3427 248.367 42.6406C248.845 42.9425 249.44 43.0914 250.151 43.0914C250.935 43.0914 251.603 42.9033 252.147 42.527C252.695 42.1507 253.111 41.5744 253.398 40.8022C253.686 40.03 253.829 39.0343 253.829 37.8153V30.7046H256.246V45.0043H253.829V41.9586H254.432C254.028 43.0209 253.387 43.8362 252.505 44.3968C251.623 44.9573 250.609 45.2395 249.459 45.2395V45.2356Z" fill="#F7FDFF"/>
<path d="M258.055 32.6178V30.7049H266.737V32.6178H258.055ZM264.55 45.2359C263.878 45.2359 263.272 45.1066 262.724 44.844C262.176 44.5813 261.753 44.1619 261.446 43.5818C261.139 43.0016 260.988 42.2568 260.988 41.3474V26.8752L263.458 25.4836V40.7124C263.458 41.5042 263.583 42.1196 263.831 42.5547C264.08 42.9899 264.531 43.2094 265.183 43.2094C265.374 43.2094 265.603 43.1858 265.875 43.1349C266.143 43.0878 266.43 43.0251 266.737 42.9467V44.8596C266.372 44.9968 266.003 45.0909 265.63 45.1497C265.257 45.2085 264.896 45.2359 264.55 45.2359Z" fill="#F7FDFF"/>
<path d="M267.426 32.6178V30.7049H276.108V32.6178H267.426ZM273.921 45.2359C273.249 45.2359 272.643 45.1066 272.095 44.844C271.548 44.5813 271.124 44.1619 270.817 43.5818C270.51 43.0016 270.359 42.2568 270.359 41.3474V26.8752L272.83 25.4836V40.7124C272.83 41.5042 272.954 42.1196 273.203 42.5547C273.451 42.9899 273.902 43.2094 274.554 43.2094C274.745 43.2094 274.974 43.1858 275.246 43.1349C275.514 43.0878 275.801 43.0251 276.108 42.9467V44.8596C275.743 44.9968 275.374 45.0909 275.001 45.1497C274.628 45.2085 274.267 45.2359 273.921 45.2359Z" fill="#F7FDFF"/>
<path d="M284.274 45.2357C283.163 45.2357 282.192 45.0475 281.356 44.6712C280.521 44.2949 279.834 43.7657 279.286 43.0915C278.738 42.4133 278.326 41.6372 278.05 40.7552C277.771 39.8772 277.635 38.9442 277.635 37.9564C277.635 36.9686 277.767 36.0279 278.039 35.1302C278.307 34.2325 278.703 33.4329 279.231 32.7391C279.76 32.0413 280.424 31.4925 281.228 31.0849C282.032 30.6772 282.973 30.4773 284.045 30.4773C285.117 30.4773 286.08 30.6654 286.877 31.0418C287.673 31.4181 288.322 31.9355 288.831 32.594C289.34 33.2526 289.717 33.9856 289.965 34.797C290.214 35.6084 290.338 36.4512 290.338 37.3214C290.338 37.3998 290.334 37.5801 290.323 37.8584C290.311 38.1407 290.288 38.3837 290.253 38.5993H280.047C280.106 39.9909 280.506 41.0767 281.255 41.8489C282.001 42.6211 283.019 43.0092 284.301 43.0092C285.125 43.0092 285.843 42.8759 286.457 42.6015C287.071 42.331 287.646 41.8959 288.182 41.2962L289.88 42.8053C289.363 43.3659 288.815 43.8245 288.24 44.1812C287.665 44.5379 287.055 44.8045 286.415 44.9809C285.774 45.1533 285.059 45.2435 284.274 45.2435V45.2357ZM287.926 37.3449C287.965 37.1921 287.988 37.0353 287.996 36.8824C288.003 36.7295 288.011 36.5727 288.011 36.4198C288.011 35.9573 287.93 35.4908 287.766 35.0283C287.603 34.5657 287.362 34.1424 287.048 33.7661C286.733 33.3898 286.329 33.0879 285.84 32.8684C285.35 32.645 284.771 32.5352 284.099 32.5352C283.276 32.5352 282.565 32.7273 281.97 33.1154C281.376 33.5034 280.917 34.013 280.591 34.652C280.265 35.2909 280.074 35.9965 280.016 36.7687H288.726L287.922 37.3489L287.926 37.3449Z" fill="#F7FDFF"/>
<path d="M291.318 32.6178V30.7049H300.001V32.6178H291.318ZM297.814 45.2359C297.142 45.2359 296.536 45.1066 295.988 44.844C295.44 44.5813 295.017 44.1619 294.71 43.5818C294.403 43.0016 294.251 42.2568 294.251 41.3474V26.8752L296.722 25.4836V40.7124C296.722 41.5042 296.846 42.1196 297.095 42.5547C297.344 42.9899 297.794 43.2094 298.447 43.2094C298.637 43.2094 298.867 43.1858 299.139 43.1349C299.407 43.0878 299.694 43.0251 300.001 42.9467V44.8596C299.636 44.9968 299.267 45.0909 298.894 45.1497C298.521 45.2085 298.16 45.2359 297.814 45.2359Z" fill="#F7FDFF"/>
</g>
<defs>
<clipPath id="clip0_221_6563">
<rect width="238.404" height="20.45" fill="white" transform="translate(61.5957 24.7859)"/>
</clipPath>
</defs>
</svg>